<svg viewBox="0 -1 480.00003 480" xmlns="http://www.w3.org/2000/svg"><path d="m456 145.121094v222.878906c-.027344 8.824219-7.175781 15.972656-16 16h-400c-8.824219-.027344-15.972656-7.175781-16-16v-222.878906l40 22.878906h352zm0 0" fill="#00ccb3"/><path d="m472 56v80l-16 9.121094-40 22.878906h-352l-40-22.878906-16-9.121094v-80zm0 0" fill="#00b39d"/><path d="m96.238281 304.554688 79.203125-79.199219 22.636719 22.636719-79.199219 79.203124zm0 0" fill="#5aaae7"/><path d="m277.289062 270.613281 22.632813-22.609375 79.136719 79.21875-22.632813 22.609375zm0 0" fill="#5aaae7"/><path d="m181.121094 219.679688-5.679688 5.679687-79.203125 79.199219-5.679687 5.679687-45.199219-45.277343 90.480469-90.480469zm0 0" fill="#1e81ce"/><path d="m435.679688 293.28125-45.28125 45.199219-11.359376-11.28125-79.117187-79.199219-11.363281-11.28125 45.28125-45.277344zm0 0" fill="#1e81ce"/><g fill="#ffc477"><path d="m214.320312 310.878906-55.839843 55.921875-39.601563-39.601562 79.199219-79.199219h33.921875l65.039062 65.039062c6.253907 6.253907 6.253907 16.390626 0 22.640626-6.25 6.253906-16.386718 6.253906-22.640624 0l-33.917969-33.917969c-6.875 6.867187-16.507813 10.222656-26.160157 9.117187zm0 0"/><path d="m291.359375 443.199219c3.019531 2.976562 4.71875 7.039062 4.71875 11.28125 0 4.238281-1.699219 8.304687-4.71875 11.28125-2.988281 2.992187-7.046875 4.675781-11.28125 4.675781-4.230469 0-8.289063-1.683594-11.277344-4.675781l-11.359375-11.28125c-.964844-.957031-1.796875-2.03125-2.480468-3.199219-1.421876-2.457031-2.164063-5.246094-2.160157-8.082031-.007812-6.464844 3.878907-12.296875 9.847657-14.78125 5.96875-2.488281 12.847656-1.136719 17.429687 3.421875zm0 0"/><path d="m280.078125 409.199219c3.003906-3.003907 7.074219-4.691407 11.320313-4.691407 4.25 0 8.320312 1.6875 11.320312 4.691407l11.28125 11.359375c3.011719 2.984375 4.707031 7.042968 4.71875 11.28125-.023438 4.257812-1.71875 8.335937-4.71875 11.359375-3 3.003906-7.074219 4.695312-11.320312 4.695312-4.246094 0-8.320313-1.691406-11.320313-4.695312l-11.28125-11.359375c-3.019531-2.992188-4.71875-7.066406-4.71875-11.320313 0-4.25 1.699219-8.328125 4.71875-11.320312zm0 0"/><path d="m336.640625 397.921875c6.25 6.25 6.25 16.386719 0 22.636719-6.253906 6.253906-16.390625 6.253906-22.640625 0l-11.28125-11.359375c-2.988281-2.992188-4.65625-7.050781-4.640625-11.277344-.003906-6.46875 3.882813-12.300781 9.851563-14.785156s12.84375-1.132813 17.429687 3.421875zm0 0"/><path d="m359.28125 375.28125c6.25 6.25 6.25 16.386719 0 22.640625-6.253906 6.25-16.390625 6.25-22.640625 0l-11.28125-11.363281c-3.019531-2.976563-4.71875-7.039063-4.71875-11.277344 0-4.242188 1.699219-8.304688 4.71875-11.28125 5.09375-5.242188 13.144531-6.242188 19.359375-2.398438 1.226562.597657 2.339844 1.410157 3.28125 2.398438zm0 0"/></g><path d="m277.28125 270.640625 79.199219 79.199219-11.761719 11.761718c-6.214844-3.84375-14.265625-2.84375-19.359375 2.398438-3.019531 2.976562-4.71875 7.039062-4.71875 11.28125 0 4.238281 1.699219 8.300781 4.71875 11.277344-4.585937-4.554688-11.460937-5.90625-17.429687-3.421875s-9.855469 8.316406-9.851563 14.785156c-.015625 4.226563 1.652344 8.285156 4.640625 11.277344-6.25-6.25-16.386719-6.25-22.640625 0-6.25 6.253906-6.25 16.390625 0 22.640625-5.6875-5.746094-14.769531-6.347656-21.164063-1.398438-6.394531 4.949219-8.089843 13.890625-3.953124 20.839844l-6 6c-6.253907 6.25-16.390626 6.25-22.640626 0-6.253906-6.253906-6.253906-16.390625 0-22.640625-2.984374 3.007813-7.042968 4.707031-11.28125 4.71875-4.257812-.023437-8.335937-1.71875-11.359374-4.71875-2.996094-2.988281-4.679688-7.046875-4.679688-11.28125 0-4.230469 1.683594-8.289063 4.679688-11.28125-6.332032 5.71875-16.035157 5.460937-22.054688-.578125-6.023438-6.042969-6.246094-15.75-.503906-22.058594-3.03125 2.976563-7.113282 4.644532-11.359375 4.636719-4.230469.019531-8.289063-1.648437-11.28125-4.636719-3.003907-3.003906-4.691407-7.074218-4.691407-11.320312s1.6875-8.320313 4.691407-11.320313l55.839843-55.921875c9.652344 1.105469 19.285157-2.25 26.160157-9.117187l33.917969 33.917969c6.253906 6.253906 16.390624 6.253906 22.640624 0 6.253907-6.25 6.253907-16.386719 0-22.640626l-38.640624-38.640624zm0 0" fill="#ffdaaa"/><path d="m364.9375 369.601562-8.464844-8.464843 5.664063-5.65625c0-.046875.046875-.105469.085937-.144531l16.855469-16.855469 5.65625 5.664062c3.125 3.121094 8.191406 3.121094 11.3125 0l45.257813-45.257812c3.121093-3.121094 3.121093-8.1875 0-11.3125l-101.824219-101.796875c-3.175781-3.003906-8.140625-3.003906-11.3125 0l-45.257813 45.253906c-3.121094 3.125-3.121094 8.1875 0 11.3125l5.65625 5.65625-15.277344 15.28125-12.257812 2.4375-23.375-23.375c-1.5-1.5-3.535156-2.34375-5.65625-2.34375h-30.625l-14.632812-14.625c3.125-3.121094 3.125-8.1875 0-11.3125l-45.246094-45.261719c-1.5-1.503906-3.535156-2.347656-5.660156-2.347656s-4.160157.84375-5.660157 2.347656l-90.511719 90.511719c-3.125 3.125-3.125 8.1875 0 11.3125l45.257813 45.253906c3.121094 3.125 8.1875 3.125 11.308594 0l51.945312 51.945313c-3.488281 7.210937-3.121093 15.691406.980469 22.570312 4.101562 6.878907 11.386719 11.238281 19.386719 11.597657.511719 12.289062 10.367187 22.125 22.65625 22.617187.523437 12.253906 10.339843 22.066406 22.59375 22.589844.503906 9.429687 6.5 17.679687 15.308593 21.074219 8.8125 3.390624 18.792969 1.292968 25.492188-5.363282l8.503906 8.503906c6.671875 6.761719 16.714844 8.929688 25.585938 5.527344 8.871094-3.40625 14.882812-11.738281 15.316406-21.230468 12.273438-.503907 22.105469-10.339844 22.609375-22.613282 12.277344-.519531 22.117187-10.355468 22.636719-22.632812 9.457031-.453125 17.753906-6.445313 21.15625-15.277344 3.40625-8.835938 1.273437-18.84375-5.433594-25.523438zm-31.113281-166.882812 90.511719 90.539062-33.9375 33.941407-90.519532-90.511719zm33.945312 124.480469-11.3125 11.3125-67.882812-67.878907 11.304687-11.3125zm-76.371093-8.480469c3.125 3.125 3.125 8.1875 0 11.3125-3.160157 3.035156-8.148438 3.035156-11.308594 0l-33.945313-33.933594c-3.125-3.125-8.1875-3.125-11.3125 0-9.375 9.378906-24.578125 9.378906-33.953125 0l-11.277344 11.300782c2.902344 2.851562 6.226563 5.242187 9.855469 7.089843l-40.976562 40.976563-28.304688-28.265625 71.199219-71.199219h27.3125zm-200.796876-19.796875-33.96875-33.953125 79.199219-79.199219 33.945313 33.941407zm84.855469-62.226563 11.296875 11.304688-67.898437 67.878906-11.3125-11.3125zm62.144531 217.226563c-2.097656.007813-4.117187-.816406-5.601562-2.296875-3.074219-3.085938-3.113281-8.066406-.089844-11.199219l16.53125-16.53125 6.167969-6.152343-11.296875-11.34375-6.183594 6.1875-16.503906 16.4375-.074219.089843c-3.183593 2.839844-8.039062 2.679688-11.027343-.367187-2.992188-3.042969-3.066407-7.898438-.171876-11.035156l22.648438-22.632813-11.3125-11.308594-22.625 22.628907c-3.121094 3.128906-8.1875 3.128906-11.316406.003906-3.125-3.121094-3.125-8.1875-.003906-11.3125l22.632812-22.625-11.3125-11.3125-22.636719 22.625c-3.164062 3.023437-8.144531 3.023437-11.304687 0-3.125-3.125-3.125-8.1875 0-11.3125l16.96875-16.976563 36.511718-36.527343c7.925782.117187 15.710938-2.136719 22.351563-6.472657l28.847656 28.847657c9.5 9.066406 24.445313 9.066406 33.941407 0 9.371093-9.371094 9.371093-24.5625 0-33.9375l-28.078126-28.078126 70.527344 70.519532-2.398437 2.398437c-6.96875-1.929687-14.4375-.574219-20.289063 3.675781-5.847656 4.253907-9.4375 10.941407-9.75 18.164063-12.359375.523437-22.226562 10.480469-22.632812 22.84375-12.277344.304687-22.1875 10.125-22.609375 22.398437-7.214844.308594-13.894531 3.886719-18.148438 9.71875-4.257812 5.832032-5.625 13.285157-3.714843 20.25l-2.402344 2.398438c-1.507813 1.464844-3.542969 2.269531-5.644532 2.234375zm48.140626 6.214844c-3.160157 3.023437-8.144532 3.023437-11.308594 0l-11.320313-11.335938c-2.800781-3.167969-2.652343-7.964843.335938-10.953125 2.984375-2.988281 7.78125-3.140625 10.949219-.34375l11.34375 11.296875c1.511718 1.492188 2.355468 3.527344 2.347656 5.648438.007812 2.132812-.835938 4.179687-2.347656 5.6875zm22.625-22.632813c-3.125 3.125-8.1875 3.125-11.3125 0l-11.3125-11.3125c-1.5-1.5-2.34375-3.535156-2.34375-5.660156 0-2.121094.84375-4.160156 2.34375-5.660156 1.492187-1.507813 3.527343-2.351563 5.648437-2.34375 2.121094 0 4.15625.84375 5.65625 2.34375l11.3125 11.3125c1.503906 1.5 2.347656 3.535156 2.351563 5.660156 0 2.121094-.839844 4.160156-2.34375 5.660156zm22.617187-22.632812c-3.160156 3.023437-8.144531 3.023437-11.304687 0l-11.3125-11.3125c-3.03125-3.136719-2.988282-8.128906.097656-11.214844 3.085937-3.085938 8.074218-3.128906 11.214844-.097656l11.3125 11.3125c1.5 1.5 2.34375 3.535156 2.34375 5.65625.007812 2.125-.839844 4.164062-2.351563 5.65625zm22.640625-22.625c-1.5 1.503906-3.539062 2.347656-5.660156 2.347656-2.125 0-4.160156-.84375-5.660156-2.347656l-11.3125-11.308594c-3.128907-3.128906-3.132813-8.199219-.007813-11.328125 3.125-3.132813 8.199219-3.136719 11.328125-.007813l11.289062 11.335938c3.121094 3.121094 3.121094 8.1875 0 11.308594zm0 0"/><path d="m472 48h-152v-40c0-4.417969-3.582031-8-8-8h-144c-4.417969 0-8 3.582031-8 8v40h-152c-4.417969 0-8 3.582031-8 8v80c-.00390625 2.863281 1.519531 5.511719 4 6.945312l12 6.839844v218.214844c0 13.253906 10.746094 24 24 24h88v-16h-88c-4.417969 0-8-3.582031-8-8v-209.070312l28 16c1.214844.699218 2.597656 1.070312 4 1.070312h48v-16h-45.871094l-50.128906-28.640625v-67.359375h448v67.359375l-50.128906 28.640625h-253.871094v16h256c1.402344.003906 2.78125-.359375 4-1.054688l28-16v209.054688c0 4.417969-3.582031 8-8 8h-56v16h56c13.253906 0 24-10.746094 24-24v-218.214844l12-6.839844c2.480469-1.433593 4.003906-4.082031 4-6.945312v-80c0-4.417969-3.582031-8-8-8zm-296-32h128v32h-128zm0 0"/><path d="m48 408h-16v48c0 4.417969 3.582031 8 8 8h80v-16h-72zm0 0"/><path d="m136 448h16v16h-16zm0 0"/><path d="m168 448h16v16h-16zm0 0"/><path d="m440 448h-72v16h80c4.417969 0 8-3.582031 8-8v-48h-16zm0 0"/><path d="m336 448h16v16h-16zm0 0"/></svg>