<svg width="139px" height="134px" viewBox="0 8 139 134" version="1.1" xmlns="http://www.w3.org/2000/svg" xmlns:xlink="http://www.w3.org/1999/xlink"><!--Generator: Sketch 42 (36781) - http://www.bohemiancoding.com/sketch--><defs/><g stroke="none" stroke-width="1" fill="none" fill-rule="evenodd" transform="translate(0.000000, 8.000000)"><g transform="translate(0.000000, 75.000000)"><path d="M138.429688,50.0002313 C138.429688,54.4183816 134.267924,58 129.131975,58 L9.29771278,58 C4.1627278,58 0,54.426195 0,50.0002313 L0,15 L138.429688,15" fill="#BCBCBC"/><path d="M138.429688,46.0002313 C138.429688,50.4183816 134.267924,54 129.131975,54 L9.29771278,54 C4.1627278,54 0,50.426195 0,46.0002313 L0,11 L138.429688,11" fill="#D8D8D8"/><rect fill="#BCBCBC" x="0" y="0" width="138.429688" height="5"/><rect fill="#BDBDBD" x="91" y="32" width="32" height="9" rx="4.5"/><g transform="translate(13.000000, 32.000000)"><circle fill="#FFFFFF" cx="28" cy="4" r="4"/><circle fill="#5DA3BC" cx="4" cy="4" r="4"/><circle fill="#5DBC85" cx="16" cy="4" r="4"/></g></g><g transform="translate(0.000000, 43.000000)"><rect fill="#D8D8D8" x="0" y="0" width="138.429688" height="43"/><rect fill="#BCBCBC" x="0" y="38" width="138.429688" height="5"/><rect fill="#BDBDBD" x="91" y="17" width="32" height="9" rx="4.5"/><g transform="translate(13.000000, 17.000000)"><circle fill="#FFFFFF" cx="4" cy="4" r="4"/><circle fill="#FFFFFF" cx="28" cy="4" r="4"/><circle fill="#5DBC85" cx="16" cy="4" r="4"/></g></g><g><path d="M0,7.99976867 C0,3.58161843 3.57855634,0 7.9902731,0 L130.439414,0 C134.85232,0 138.429688,3.57380498 138.429688,7.99976867 L138.429688,43 L0,43 L0,7.99976867 Z" fill="#D8D8D8"/><rect fill="#BCBCBC" x="0" y="38" width="138.429688" height="5"/><rect fill="#BDBDBD" x="91" y="17" width="32" height="9" rx="4.5"/><g transform="translate(13.000000, 18.000000)"><circle fill="#FFFFFF" cx="16" cy="4" r="4"/><circle fill="#FFFFFF" cx="28" cy="4" r="4"/><circle fill="#5DBC85" cx="4" cy="4" r="4"/></g></g></g></svg>